<svg width="14" height="12" viewBox="0 0 14 12" fill="none" xmlns="http://www.w3.org/2000/svg">
<path d="M3.02 6.02003L4.35333 8.33336L2.66667 10.4534L0.333332 6.41336L3.02 6.02003ZM10.3333 10V8.19336C10.92 7.93336 11.3333 7.35336 11.3333 6.6667C11.3333 6.2867 11.2 5.93336 10.98 5.6667L12.2933 4.90003C12.9667 4.5067 13.2 3.6467 12.8067 2.97336L11.8867 1.37336C11.6991 1.05004 11.3913 0.813948 11.0304 0.716546C10.6695 0.619143 10.2848 0.668321 9.96 0.853363L4.54 4.00003C3.90667 4.35336 3.68667 5.1667 4.05333 5.8067L5.05333 7.54003C5.42 8.17336 6.24 8.39336 6.87333 8.0267L8.12667 7.3067C8.29333 7.70003 8.60667 8.02003 9 8.19336V10C9 10.7334 9.6 11.3334 10.3333 11.3334H13.6667V10H10.3333Z" fill="white"/>
</svg>
