<svg width="10" height="10" viewBox="0 0 10 10" fill="none" xmlns="http://www.w3.org/2000/svg">
<path d="M4.15 6.5H2.5C1.96957 6.5 1.46086 6.71071 1.08579 7.08579C0.710714 7.46086 0.5 7.96957 0.5 8.5V9.5M9.50005 9.50005L8.55005 8.55005M6 2.5C6 3.60457 5.10457 4.5 4 4.5C2.89543 4.5 2 3.60457 2 2.5C2 1.39543 2.89543 0.5 4 0.5C5.10457 0.5 6 1.39543 6 2.5ZM9 7.5C9 8.32843 8.32843 9 7.5 9C6.67157 9 6 8.32843 6 7.5C6 6.67157 6.67157 6 7.5 6C8.32843 6 9 6.67157 9 7.5Z" stroke="#3B82F6" stroke-linecap="round" stroke-linejoin="round"/>
</svg>
