<svg width="12" height="10" viewBox="0 0 12 10" fill="none" xmlns="http://www.w3.org/2000/svg">
<path d="M6 3.5V5.5M6 7.5H6.005M10.865 7.99999L6.86496 0.99999C6.77775 0.846092 6.65127 0.718084 6.49843 0.629025C6.34559 0.539965 6.17186 0.493042 5.99496 0.493042C5.81807 0.493042 5.64434 0.539965 5.4915 0.629025C5.33866 0.718084 5.21218 0.846092 5.12496 0.99999L1.12496 7.99999C1.03681 8.15267 0.990579 8.32594 0.990969 8.50224C0.99136 8.67855 1.03835 8.85162 1.12719 9.0039C1.21602 9.15619 1.34354 9.28228 1.49681 9.3694C1.65009 9.45653 1.82367 9.50158 1.99996 9.49999H9.99996C10.1754 9.49981 10.3477 9.45347 10.4996 9.36563C10.6515 9.27779 10.7776 9.15154 10.8652 8.99955C10.9529 8.84756 10.999 8.67518 10.9989 8.49973C10.9989 8.32428 10.9527 8.15193 10.865 7.99999Z" stroke="#78716C" stroke-linecap="round" stroke-linejoin="round"/>
</svg>
